<svg width="715" height="124" viewBox="0 0 715 124" fill="none" xmlns="http://www.w3.org/2000/svg">
<path d="M30.2 91.8C35.32 91.8 39.544 90.6053 42.872 88.216C46.2853 85.7413 47.992 81.9013 47.992 76.696C47.992 72.856 46.84 69.656 44.536 67.096C42.3173 64.536 38.3067 62.4027 32.504 60.696L20.6 57.112C14.6267 55.32 10.0187 52.248 6.776 47.896C3.61867 43.4587 2.04 37.9547 2.04 31.384C2.04 27.032 3.02133 22.9787 4.984 19.224C7.032 15.4693 10.104 12.44 14.2 10.136C18.3813 7.83199 23.6293 6.67999 29.944 6.67999C36.856 6.67999 42.4453 7.95999 46.712 10.52C50.9787 12.9947 53.9653 16.2373 55.672 20.248C57.3787 24.2587 57.8053 28.568 56.952 33.176L42.232 35.864C43.5973 27.928 43 21.8267 40.44 17.56C37.9653 13.2933 33.912 11.16 28.28 11.16C23.928 11.16 20.4293 12.44 17.784 15C15.224 17.56 13.944 21.2293 13.944 26.008C13.944 29.9333 15.0533 33.3893 17.272 36.376C19.576 39.3627 23.3307 41.6667 28.536 43.288L40.44 46.872C46.9253 48.7493 51.7893 51.608 55.032 55.448C58.2747 59.2027 59.896 64.4507 59.896 71.192C59.896 75.9707 58.7867 80.28 56.568 84.12C54.4347 87.8747 51.1493 90.8613 46.712 93.08C42.36 95.2133 36.8987 96.28 30.328 96.28C25.5493 96.28 21.0267 95.5973 16.76 94.232C12.4933 92.7813 8.90933 90.4347 6.008 87.192C3.192 83.9493 1.4 79.5547 0.632 74.008L9.208 70.936C9.63467 76.3973 10.8293 80.664 12.792 83.736C14.84 86.7227 17.3573 88.8133 20.344 90.008C23.416 91.2027 26.7013 91.8 30.2 91.8ZM132.155 61.208V63.768C132.155 73.5813 129.595 81.4747 124.475 87.448C119.44 93.336 112.23 96.28 102.843 96.28C93.4563 96.28 86.203 93.336 81.083 87.448C76.0483 81.4747 73.531 73.5813 73.531 63.768V61.208C73.531 51.3947 76.0483 43.544 81.083 37.656C86.203 31.768 93.4563 28.824 102.843 28.824C112.23 28.824 119.44 31.768 124.475 37.656C129.595 43.544 132.155 51.3947 132.155 61.208ZM116.411 58.648C116.411 49.5173 115.259 43.032 112.955 39.192C110.651 35.2667 107.28 33.304 102.843 33.304C98.491 33.304 95.1203 35.2667 92.731 39.192C90.427 43.032 89.275 49.5173 89.275 58.648V66.328C89.275 75.3733 90.427 81.9013 92.731 85.912C95.1203 89.8373 98.491 91.8 102.843 91.8C107.28 91.8 110.651 89.8373 112.955 85.912C115.259 81.9013 116.411 75.3733 116.411 66.328V58.648ZM214.27 91.416V95H190.462V83.736C188.073 88.088 185.001 91.288 181.246 93.336C177.491 95.2987 173.694 96.28 169.854 96.28C163.795 96.28 158.974 94.2747 155.39 90.264C151.806 86.168 150.014 80.4933 150.014 73.24V40.856C150.014 37.9547 149.886 36.248 149.63 35.736C149.374 35.1387 148.563 34.7547 147.198 34.584L140.158 33.688V30.104H164.734V73.112C164.734 79 165.545 83.3093 167.166 86.04C168.873 88.6853 171.305 90.008 174.462 90.008C175.827 90.008 177.406 89.6667 179.198 88.984C181.075 88.216 182.953 86.8933 184.83 85.016C186.707 83.0533 188.329 80.28 189.694 76.696V40.856C189.694 37.9547 189.566 36.2053 189.31 35.608C189.054 35.0107 188.243 34.6693 186.878 34.584L177.278 33.688V30.104H204.414V84.248C204.414 87.1493 204.542 88.8987 204.798 89.496C205.054 90.008 205.865 90.3493 207.23 90.52L214.27 91.416ZM294.711 91.416V95H260.279V91.416L267.319 90.52C268.684 90.3493 269.495 90.008 269.751 89.496C270.007 88.8987 270.135 87.1493 270.135 84.248V51.992C270.135 46.104 269.239 41.8373 267.447 39.192C265.74 36.4613 263.18 35.096 259.767 35.096C258.316 35.096 256.61 35.48 254.647 36.248C252.77 36.9307 250.85 38.2107 248.887 40.088C247.01 41.9653 245.346 44.7387 243.895 48.408V84.248C243.895 87.1493 244.023 88.8987 244.279 89.496C244.535 90.008 245.346 90.3493 246.711 90.52L253.751 91.416V95H219.319V91.416L226.359 90.52C227.724 90.3493 228.535 90.008 228.791 89.496C229.047 88.8987 229.175 87.1493 229.175 84.248V40.856C229.175 37.9547 229.047 36.248 228.791 35.736C228.535 35.1387 227.724 34.7547 226.359 34.584L219.319 33.688V30.104H243.127V41.368C245.602 37.016 248.759 33.8587 252.599 31.896C256.524 29.848 260.45 28.824 264.375 28.824C270.69 28.824 275.682 30.8293 279.351 34.84C283.02 38.8507 284.855 44.5253 284.855 51.864V84.248C284.855 87.1493 284.983 88.8987 285.239 89.496C285.495 90.008 286.306 90.3493 287.671 90.52L294.711 91.416ZM368.957 91.416V95H345.149V84.376C342.76 88.3013 340.072 91.288 337.085 93.336C334.184 95.2987 330.728 96.28 326.717 96.28C319.549 96.28 313.832 93.464 309.565 87.832C305.384 82.1147 303.293 74.136 303.293 63.896V61.336C303.293 51.4373 305.725 43.544 310.589 37.656C315.538 31.768 322.28 28.824 330.813 28.824C335.933 28.824 340.456 30.104 344.381 32.664V11.032C344.381 8.13066 344.253 6.42399 343.997 5.91199C343.741 5.31466 342.93 4.93066 341.565 4.75999L334.525 3.864V0.279999H359.101V84.248C359.101 87.1493 359.229 88.8987 359.485 89.496C359.741 90.008 360.552 90.3493 361.917 90.52L368.957 91.416ZM319.037 67.736C319.037 75.672 320.018 81.4747 321.981 85.144C323.944 88.8133 326.632 90.648 330.045 90.648C332.178 90.648 334.397 89.7947 336.701 88.088C339.09 86.296 341.65 82.712 344.381 77.336V38.68C341.138 35.4373 337.17 33.816 332.477 33.816C327.784 33.816 324.37 35.9493 322.237 40.216C320.104 44.3973 319.037 50.1573 319.037 57.496V67.736Z" fill="black"/>
<path d="M448.44 91.416V95H414.008V91.416L421.048 90.52C422.413 90.3493 423.224 90.008 423.48 89.496C423.736 88.8987 423.864 87.1493 423.864 84.248V51.992C423.864 46.104 422.968 41.8373 421.176 39.192C419.469 36.4613 416.909 35.096 413.496 35.096C412.045 35.096 410.339 35.48 408.376 36.248C406.499 36.9307 404.579 38.2107 402.616 40.088C400.739 41.9653 399.075 44.7387 397.624 48.408V84.248C397.624 87.1493 397.752 88.8987 398.008 89.496C398.264 90.008 399.075 90.3493 400.44 90.52L407.48 91.416V95H373.048V91.416L380.088 90.52C381.453 90.3493 382.264 90.008 382.52 89.496C382.776 88.8987 382.904 87.1493 382.904 84.248V11.032C382.904 8.13066 382.776 6.42399 382.52 5.91199C382.264 5.31466 381.453 4.93066 380.088 4.75999L373.048 3.864V0.279999H397.624V40.088C400.099 36.1627 403.171 33.304 406.84 31.512C410.595 29.72 414.349 28.824 418.104 28.824C424.419 28.824 429.411 30.8293 433.08 34.84C436.749 38.8507 438.584 44.5253 438.584 51.864V84.248C438.584 87.1493 438.712 88.8987 438.968 89.496C439.224 90.008 440.035 90.3493 441.4 90.52L448.44 91.416ZM518.099 91.8C516.734 93.08 515.07 94.1467 513.107 95C511.23 95.8533 508.926 96.28 506.195 96.28C502.696 96.28 499.752 95.512 497.363 93.976C495.059 92.44 493.523 90.264 492.755 87.448C489.939 90.52 486.824 92.7813 483.411 94.232C480.083 95.5973 476.67 96.28 473.171 96.28C467.283 96.28 462.888 94.6587 459.987 91.416C457.086 88.088 455.635 83.9493 455.635 79C455.635 73.9653 457.47 69.912 461.139 66.84C464.808 63.6827 471.294 62.104 480.595 62.104H492.243V51.736C492.243 44.6533 491.304 39.832 489.427 37.272C487.635 34.6267 485.118 33.304 481.875 33.304C479.742 33.304 477.779 33.8587 475.987 34.968C474.195 35.992 472.915 37.9547 472.147 40.856C471.464 43.672 471.592 47.768 472.531 53.144L458.451 51.096C457.768 47.1707 458.195 43.544 459.731 40.216C461.352 36.8027 464.04 34.072 467.795 32.024C471.55 29.8907 476.328 28.824 482.131 28.824C488.702 28.824 493.779 29.8907 497.363 32.024C500.947 34.1573 503.422 36.9733 504.787 40.472C506.238 43.9707 506.963 47.7253 506.963 51.736V81.304C506.963 85.656 507.347 88.3867 508.115 89.496C508.883 90.6053 509.736 91.16 510.675 91.16C512.211 91.16 513.918 90.264 515.795 88.472L518.099 91.8ZM478.803 89.496C481.022 89.496 483.198 88.9413 485.331 87.832C487.55 86.6373 489.854 84.4613 492.243 81.304V66.584H482.643C478.462 66.584 475.432 67.5653 473.555 69.528C471.678 71.4907 470.739 74.5627 470.739 78.744C470.739 82.1573 471.422 84.8027 472.787 86.68C474.152 88.5573 476.158 89.496 478.803 89.496ZM521.694 33.688V30.104H545.502V40.6C550.707 32.7493 556.894 28.824 564.062 28.824C566.707 28.824 569.267 29.6773 571.742 31.384C574.217 33.0053 576.265 36.0773 577.886 40.6L566.494 46.744C565.299 43.2453 563.891 40.8987 562.27 39.704C560.734 38.424 559.07 37.784 557.278 37.784C555.401 37.784 553.566 38.3813 551.774 39.576C549.982 40.7707 548.147 42.9893 546.27 46.232V84.248C546.27 87.1493 546.398 88.8987 546.654 89.496C546.91 90.008 547.721 90.3493 549.086 90.52L558.686 91.416V95H521.694V91.416L528.734 90.52C530.099 90.3493 530.91 90.008 531.166 89.496C531.422 88.8987 531.55 87.1493 531.55 84.248V40.856C531.55 37.9547 531.422 36.248 531.166 35.736C530.91 35.1387 530.099 34.7547 528.734 34.584L521.694 33.688ZM616.659 101.4C614.696 106.776 612.52 111.085 610.131 114.328C607.827 117.571 604.968 119.917 601.555 121.368C598.142 122.819 593.875 123.544 588.755 123.544V109.464C593.96 109.464 598.142 109.08 601.299 108.312C604.542 107.629 607.016 106.477 608.723 104.856C610.515 103.32 611.838 101.315 612.691 98.84L613.971 95H607.315L589.139 40.856C588.542 38.8933 588.03 37.528 587.603 36.76C587.262 35.9067 586.835 35.352 586.323 35.096C585.896 34.84 585.214 34.6693 584.275 34.584L577.235 33.688V30.104H611.795V33.688L604.755 34.584C603.731 34.6693 603.091 35.0107 602.835 35.608C602.664 36.12 603.048 37.8693 603.987 40.856L617.939 83.096L632.403 40.344C633.342 37.6133 633.726 36.0347 633.555 35.608C633.47 35.096 632.787 34.7547 631.507 34.584L624.467 33.688V30.104H648.915V33.688L641.875 34.584C640.595 34.7547 639.742 35.096 639.315 35.608C638.888 36.12 638.206 37.6987 637.267 40.344L616.659 101.4ZM714.599 91.8C713.234 93.08 711.57 94.1467 709.607 95C707.73 95.8533 705.426 96.28 702.695 96.28C699.196 96.28 696.252 95.512 693.863 93.976C691.559 92.44 690.023 90.264 689.255 87.448C686.439 90.52 683.324 92.7813 679.911 94.232C676.583 95.5973 673.17 96.28 669.671 96.28C663.783 96.28 659.388 94.6587 656.487 91.416C653.586 88.088 652.135 83.9493 652.135 79C652.135 73.9653 653.97 69.912 657.639 66.84C661.308 63.6827 667.794 62.104 677.095 62.104H688.743V51.736C688.743 44.6533 687.804 39.832 685.927 37.272C684.135 34.6267 681.618 33.304 678.375 33.304C676.242 33.304 674.279 33.8587 672.487 34.968C670.695 35.992 669.415 37.9547 668.647 40.856C667.964 43.672 668.092 47.768 669.031 53.144L654.951 51.096C654.268 47.1707 654.695 43.544 656.231 40.216C657.852 36.8027 660.54 34.072 664.295 32.024C668.05 29.8907 672.828 28.824 678.631 28.824C685.202 28.824 690.279 29.8907 693.863 32.024C697.447 34.1573 699.922 36.9733 701.287 40.472C702.738 43.9707 703.463 47.7253 703.463 51.736V81.304C703.463 85.656 703.847 88.3867 704.615 89.496C705.383 90.6053 706.236 91.16 707.175 91.16C708.711 91.16 710.418 90.264 712.295 88.472L714.599 91.8ZM675.303 89.496C677.522 89.496 679.698 88.9413 681.831 87.832C684.05 86.6373 686.354 84.4613 688.743 81.304V66.584H679.143C674.962 66.584 671.932 67.5653 670.055 69.528C668.178 71.4907 667.239 74.5627 667.239 78.744C667.239 82.1573 667.922 84.8027 669.287 86.68C670.652 88.5573 672.658 89.496 675.303 89.496Z" fill="#06FF06"/>
</svg>
